<?xml version="1.0" encoding="UTF-8" standalone="no"?>
<!-- Created with Inkscape (http://www.inkscape.org/) -->

<svg xmlns:dc="http://purl.org/dc/elements/1.1/" xmlns:cc="http://creativecommons.org/ns#" xmlns:rdf="http://www.w3.org/1999/02/22-rdf-syntax-ns#" xmlns:svg="http://www.w3.org/2000/svg" xmlns="http://www.w3.org/2000/svg" xmlns:sodipodi="http://sodipodi.sourceforge.net/DTD/sodipodi-0.dtd" xmlns:inkscape="http://www.inkscape.org/namespaces/inkscape" width="900" height="450" id="svg2" version="1.1" inkscape:version="0.48.0 r9654" sodipodi:docname="example.svg">
  <defs id="defs4">
    <marker inkscape:stockid="Arrow2Send" orient="auto" refY="0.0" refX="0.0" id="Arrow2Send" style="overflow:visible;">
      <path id="path5103" style="font-size:12.0;fill-rule:evenodd;stroke-width:0.62500000;stroke-linejoin:round;" d="M 8.7185878,4.0337352 L -2.2072895,0.016013256 L 8.7185884,-4.0017078 C 6.9730900,-1.6296469 6.9831476,1.6157441 8.7185878,4.0337352 z " transform="scale(0.3) rotate(180) translate(-2.3,0)" />
    </marker>
    <marker inkscape:stockid="Arrow2Lend" orient="auto" refY="0.0" refX="0.0" id="Arrow2Lend" style="overflow:visible;">
      <path id="path5091" style="font-size:12.0;fill-rule:evenodd;stroke-width:0.62500000;stroke-linejoin:round;" d="M 8.7185878,4.0337352 L -2.2072895,0.016013256 L 8.7185884,-4.0017078 C 6.9730900,-1.6296469 6.9831476,1.6157441 8.7185878,4.0337352 z " transform="scale(1.1) rotate(180) translate(1,0)" />
    </marker>
    <marker inkscape:stockid="Arrow1Lstart" orient="auto" refY="0.0" refX="0.0" id="Arrow1Lstart" style="overflow:visible">
      <path id="path5070" d="M 0.0,0.0 L 5.0,-5.0 L -12.5,0.0 L 5.0,5.0 L 0.0,0.0 z " style="fill-rule:evenodd;stroke:#000000;stroke-width:1.0pt;marker-start:none" transform="scale(0.8) translate(12.5,0)" />
    </marker>
    <inkscape:perspective sodipodi:type="inkscape:persp3d" inkscape:vp_x="0 : 225 : 1" inkscape:vp_y="0 : 1000 : 0" inkscape:vp_z="900 : 225 : 1" inkscape:persp3d-origin="450 : 150 : 1" id="perspective3030" />
    <marker inkscape:stockid="Arrow1Sstart" orient="auto" refY="0.0" refX="0.0" id="Arrow1Sstart" style="overflow:visible">
      <path id="path3842" d="M 0,0 L 5,-5 L -12.5,0 L 5,5 L 0,0 z" style="fill:#000000;fill-rule:evenodd;stroke:#000000;stroke-width:1pt;marker-start:none" transform="matrix(0.2,0,0,0.2,1.2,0)" inkscape:connector-curvature="0" />
    </marker>
    <marker inkscape:stockid="DiamondS" orient="auto" refY="0.0" refX="0.0" id="DiamondS" style="overflow:visible">
      <path id="path4069" d="M 0,-7.0710768 L -7.0710894,0 L 0,7.0710589 L 7.0710462,0 L 0,-7.0710768 z" style="fill:#000000;fill-rule:evenodd;stroke:#000000;stroke-width:1pt;marker-start:none" transform="scale(0.2,0.2)" inkscape:connector-curvature="0" />
    </marker>
    <marker inkscape:stockid="Arrow1Mend" orient="auto" refY="0.0" refX="0.0" id="Arrow1Mend" style="overflow:visible;">
      <path id="path4044" d="M 0,0 L 5,-5 L -12.5,0 L 5,5 L 0,0 z" style="fill:#000000;fill-rule:evenodd;stroke:#000000;stroke-width:1pt;marker-start:none" transform="matrix(-0.4,0,0,-0.4,-4,0)" inkscape:connector-curvature="0" />
    </marker>
    <filter color-interpolation-filters="sRGB" inkscape:collect="always" id="Tracer" x="-0.18000001" width="1.36" y="-0.18000001" height="1.36">
      <feGaussianBlur inkscape:collect="always" stdDeviation="3.375" id="feGaussianBlur6165-0" />
    </filter>
    <marker inkscape:stockid="Arrow1Sstart" orient="auto" refY="0" refX="0" id="Arrow1Sstart-1" style="overflow:visible">
      <path id="path3842-7" d="M 0,0 L 5,-5 L -12.5,0 L 5,5 L 0,0 z" style="fill:#000000;fill-rule:evenodd;stroke:#000000;stroke-width:1pt;marker-start:none" transform="matrix(0.2,0,0,0.2,1.2,0)" inkscape:connector-curvature="0" />
    </marker>
    <marker inkscape:stockid="DiamondS" orient="auto" refY="0" refX="0" id="DiamondS-4" style="overflow:visible">
      <path id="path4069-0" d="M 0,-7.0710768 L -7.0710894,0 L 0,7.0710589 L 7.0710462,0 L 0,-7.0710768 z" style="fill:#000000;fill-rule:evenodd;stroke:#000000;stroke-width:1pt;marker-start:none" transform="scale(0.2,0.2)" inkscape:connector-curvature="0" />
    </marker>
    <marker inkscape:stockid="DiamondS" orient="auto" refY="0" refX="0" id="DiamondS-5" style="overflow:visible">
      <path id="path4069-02" d="M 0,-7.0710768 L -7.0710894,0 L 0,7.0710589 L 7.0710462,0 L 0,-7.0710768 z" style="fill:#000000;fill-rule:evenodd;stroke:#000000;stroke-width:1pt;marker-start:none" transform="scale(0.2,0.2)" inkscape:connector-curvature="0" />
    </marker>
    <marker inkscape:stockid="DiamondS" orient="auto" refY="0" refX="0" id="DiamondS-0" style="overflow:visible">
      <path id="path4069-2" d="M 0,-7.0710768 L -7.0710894,0 L 0,7.0710589 L 7.0710462,0 L 0,-7.0710768 z" style="fill:#000000;fill-rule:evenodd;stroke:#000000;stroke-width:1pt;marker-start:none" transform="scale(0.2,0.2)" inkscape:connector-curvature="0" />
    </marker>
    <filter color-interpolation-filters="sRGB" inkscape:collect="always" id="Tracer-1" x="-0.18000001" width="1.36" y="-0.18000001" height="1.36">
      <feGaussianBlur inkscape:collect="always" stdDeviation="3.375" id="feGaussianBlur6165-0-3" />
    </filter>
    <filter color-interpolation-filters="sRGB" inkscape:collect="always" id="Tracer-1-3" x="-0.18000001" width="1.36" y="-0.18000001" height="1.36">
      <feGaussianBlur inkscape:collect="always" stdDeviation="3.375" id="feGaussianBlur6165-0-3-4" />
    </filter>
    <marker inkscape:stockid="Arrow1Sstart" orient="auto" refY="0" refX="0" id="Arrow1Sstart-1-4" style="overflow:visible">
      <path id="path3842-7-0" d="M 0,0 L 5,-5 L -12.5,0 L 5,5 L 0,0 z" style="fill:#000000;fill-rule:evenodd;stroke:#000000;stroke-width:1pt;marker-start:none" transform="matrix(0.2,0,0,0.2,1.2,0)" inkscape:connector-curvature="0" />
    </marker>
    <marker inkscape:stockid="Arrow1Mend" orient="auto" refY="0" refX="0" id="Arrow1Mend-1" style="overflow:visible">
      <path id="path4044-7" d="M 0,0 L 5,-5 L -12.5,0 L 5,5 L 0,0 z" style="fill:#000000;fill-rule:evenodd;stroke:#000000;stroke-width:1pt;marker-start:none" transform="matrix(-0.4,0,0,-0.4,-4,0)" inkscape:connector-curvature="0" />
    </marker>
  </defs>
  <sodipodi:namedview id="base" pagecolor="#ffffff" bordercolor="#666666" borderopacity="1.0" inkscape:pageopacity="0.0" inkscape:pageshadow="2" inkscape:zoom="1.6176905" inkscape:cx="472.65556" inkscape:cy="246.28709" inkscape:document-units="in" inkscape:current-layer="layer1" showgrid="true" units="in" inkscape:window-width="1440" inkscape:window-height="853" inkscape:window-x="-4" inkscape:window-y="-4" inkscape:window-maximized="1" showguides="true" inkscape:guide-bbox="true" inkscape:snap-bbox="true" inkscape:snap-bbox-midpoints="true" inkscape:snap-bbox-edge-midpoints="true" inkscape:snap-grids="true" inkscape:snap-to-guides="true">
    <inkscape:grid type="xygrid" id="grid2985" empspacing="5" visible="true" enabled="true" snapvisiblegridlinesonly="true" units="in" spacingx="0.1in" spacingy="0.1in" dotted="false" />
  </sodipodi:namedview>
  <metadata id="metadata7">
    <rdf:RDF>
      <cc:Work rdf:about="">
        <dc:format>image/svg+xml</dc:format>
        <dc:type rdf:resource="http://purl.org/dc/dcmitype/StillImage" />
        <dc:title />
      </cc:Work>
    </rdf:RDF>
  </metadata>
  <g inkscape:label="Layer 1" inkscape:groupmode="layer" id="layer1" style="display:inline">
    <path sodipodi:type="star" style="fill:#ffff00;fill-opacity:1;fill-rule:evenodd;stroke:none" id="path7357" sodipodi:sides="5" sodipodi:cx="324" sodipodi:cy="99" sodipodi:r1="76.524498" sodipodi:r2="38.262245" sodipodi:arg1="0.93637489" sodipodi:arg2="1.5646934" inkscape:flatsided="false" inkscape:rounded="0" inkscape:randomized="0" d="M 369.35696,160.63396 L 324.23351,137.26153 L 279.39869,161.18297 L 287.68328,111.04555 L 251.07792,75.797231 L 301.32152,68.183024 L 323.53298,22.476927 L 346.30065,67.908516 L 396.63345,74.908909 L 360.46104,110.60138 z" inkscape:transform-center-x="0.10736097" inkscape:transform-center-y="-3.1861205" transform="matrix(0.4500038,-0.00179406,0.00179406,0.4500038,258.97428,98.336243)" />
    <g style="font-size:20px;font-style:normal;font-weight:normal;line-height:125%;letter-spacing:0px;word-spacing:0px;writing-mode:lr-tb;fill:#0000ff;fill-opacity:1;stroke:none;font-family:Bitstream Vera Sans" id="path_text" transform="translate(2.1764786,85.380278)">
      <path d="M 210.88281,280.89659 L 210.88281,246.4669 L 214.72656,246.4669 L 214.72656,249.70128 C 215.6328,248.43567 216.65624,247.48646 217.79687,246.85362 C 218.93749,246.22083 220.3203,245.90443 221.94531,245.9044 C 224.0703,245.90443 225.94529,246.4513 227.57031,247.54503 C 229.19529,248.6388 230.42185,250.18177 231.25,252.17393 C 232.0781,254.16614 232.49216,256.34973 232.49219,258.72471 C 232.49216,261.2716 232.03513,263.56457 231.12109,265.60362 C 230.20701,267.64269 228.87889,269.20519 227.13672,270.29112 C 225.39451,271.37706 223.56248,271.92003 221.64062,271.92003 C 220.23436,271.92003 218.97264,271.62315 217.85547,271.0294 C 216.73827,270.43565 215.8203,269.68565 215.10156,268.7794 L 215.10156,280.89659 z M 214.70312,259.05284 C 214.70312,262.25597 215.35155,264.62316 216.64844,266.1544 C 217.9453,267.68566 219.51561,268.45128 221.35937,268.45128 C 223.23436,268.45128 224.83983,267.65831 226.17578,266.07237 C 227.5117,264.48644 228.17967,262.02941 228.17969,258.70128 C 228.17967,255.52942 227.52732,253.15442 226.22266,251.57628 C 224.91795,249.99817 223.35936,249.20911 221.54687,249.20909 C 219.74999,249.20911 218.16015,250.04895 216.77734,251.72862 C 215.39452,253.40833 214.70312,255.84973 214.70312,259.05284 z" style="font-size:48px;-inkscape-font-specification:Sans" id="path3903" inkscape:connector-curvature="0" />
      <path d="M 237.60156,271.35753 L 237.60156,236.99815 L 241.82031,236.99815 L 241.82031,249.32628 C 243.78905,247.04505 246.27343,245.90443 249.27344,245.9044 C 251.11717,245.90443 252.71873,246.26771 254.07812,246.99425 C 255.43748,247.72083 256.41013,248.72474 256.99609,250.00596 C 257.58201,251.28723 257.87498,253.14661 257.875,255.58409 L 257.875,271.35753 L 253.65625,271.35753 L 253.65625,255.58409 C 253.65623,253.47473 253.1992,251.93958 252.28516,250.97862 C 251.37108,250.0177 250.07811,249.53724 248.40625,249.53721 C 247.15624,249.53724 245.98046,249.86145 244.87891,250.50987 C 243.77733,251.15833 242.99218,252.03723 242.52344,253.14659 C 242.05468,254.25598 241.82031,255.78723 241.82031,257.74034 L 241.82031,271.35753 z" style="font-size:48px;-inkscape-font-specification:Sans" id="path3905" inkscape:connector-curvature="0" />
      <path d="M 264.32031,271.35753 L 264.32031,246.4669 L 268.11719,246.4669 L 268.11719,250.00596 C 269.9453,247.27161 272.58593,245.90443 276.03906,245.9044 C 277.53905,245.90443 278.91795,246.17396 280.17578,246.713 C 281.43357,247.25208 282.37498,247.95911 283,248.83409 C 283.62498,249.70911 284.06248,250.74817 284.3125,251.95128 C 284.46873,252.73255 284.54685,254.09973 284.54687,256.05284 L 284.54687,271.35753 L 280.32812,271.35753 L 280.32812,256.2169 C 280.32811,254.49817 280.16404,253.21301 279.83594,252.36143 C 279.50779,251.50989 278.92576,250.8302 278.08984,250.32237 C 277.25389,249.81458 276.27342,249.56067 275.14844,249.56065 C 273.35155,249.56067 271.80077,250.13099 270.49609,251.27159 C 269.1914,252.41223 268.53906,254.57629 268.53906,257.76378 L 268.53906,271.35753 z" style="font-size:48px;-inkscape-font-specification:Sans" id="path3907" inkscape:connector-curvature="0" />
      <path d="M 302.78125,258.91221 C 302.78125,254.30286 304.0625,250.8888 306.625,248.67003 C 308.76562,246.8263 311.37499,245.90443 314.45312,245.9044 C 317.87498,245.90443 320.67186,247.02552 322.84375,249.26768 C 325.0156,251.50989 326.10154,254.60754 326.10156,258.56065 C 326.10154,261.76379 325.62107,264.28332 324.66016,266.11925 C 323.6992,267.95519 322.30076,269.38097 320.46484,270.39659 C 318.62889,271.41221 316.62498,271.92003 314.45312,271.92003 C 310.96874,271.92003 308.15234,270.80284 306.00391,268.56846 C 303.85547,266.33409 302.78125,263.11535 302.78125,258.91221 z M 307.11719,258.91221 C 307.11718,262.09972 307.81249,264.48644 309.20312,266.07237 C 310.59374,267.65831 312.34374,268.45128 314.45312,268.45128 C 316.54686,268.45128 318.28905,267.65441 319.67969,266.06065 C 321.07029,264.46691 321.7656,262.03722 321.76562,258.77159 C 321.7656,255.69348 321.06639,253.36145 319.66797,251.7755 C 318.26951,250.18958 316.53123,249.39661 314.45312,249.39659 C 312.34374,249.39661 310.59374,250.18567 309.20312,251.76378 C 307.81249,253.34192 307.11718,255.72473 307.11719,258.91221 z" style="font-size:48px;-inkscape-font-specification:Sans" id="path3909" inkscape:connector-curvature="0" />
      <path d="M 347.38281,271.35753 L 347.38281,267.70128 C 345.44529,270.51378 342.81249,271.92003 339.48437,271.92003 C 338.01561,271.92003 336.64452,271.63878 335.37109,271.07628 C 334.09765,270.51378 333.15234,269.80675 332.53516,268.95518 C 331.91796,268.10362 331.48437,267.06066 331.23437,265.82628 C 331.0625,264.99816 330.97656,263.68566 330.97656,261.88878 L 330.97656,246.4669 L 335.19531,246.4669 L 335.19531,260.27159 C 335.19531,262.47472 335.28121,263.9591 335.45312,264.72471 C 335.71874,265.83409 336.28124,266.70519 337.14062,267.338 C 337.99999,267.97081 339.06249,268.28722 340.32812,268.28721 C 341.59374,268.28722 342.78124,267.963 343.89062,267.31456 C 344.99998,266.66613 345.78514,265.78331 346.24609,264.66612 C 346.70701,263.54894 346.93748,261.92785 346.9375,259.80284 L 346.9375,246.4669 L 351.15625,246.4669 L 351.15625,271.35753 z" style="font-size:48px;-inkscape-font-specification:Sans" id="path3911" inkscape:connector-curvature="0" />
      <path d="M 367,267.58409 L 367.60937,271.31065 C 366.42186,271.56065 365.35936,271.68565 364.42187,271.68565 C 362.89062,271.68565 361.70312,271.44346 360.85937,270.95909 C 360.01562,270.47472 359.42187,269.838 359.07812,269.04893 C 358.73437,268.25987 358.5625,266.59972 358.5625,264.06846 L 358.5625,249.74815 L 355.46875,249.74815 L 355.46875,246.4669 L 358.5625,246.4669 L 358.5625,240.30284 L 362.75781,237.77159 L 362.75781,246.4669 L 367,246.4669 L 367,249.74815 L 362.75781,249.74815 L 362.75781,264.30284 C 362.7578,265.50597 362.83201,266.27941 362.98047,266.62315 C 363.1289,266.96691 363.37109,267.24034 363.70703,267.44346 C 364.04296,267.64659 364.52343,267.74816 365.14844,267.74815 C 365.61718,267.74816 366.23436,267.69345 367,267.58409 z" style="font-size:48px;-inkscape-font-specification:Sans" id="path3913" inkscape:connector-curvature="0" />
      <path d="M 371.10156,280.89659 L 371.10156,246.4669 L 374.94531,246.4669 L 374.94531,249.70128 C 375.85155,248.43567 376.87499,247.48646 378.01562,246.85362 C 379.15624,246.22083 380.53905,245.90443 382.16406,245.9044 C 384.28905,245.90443 386.16404,246.4513 387.78906,247.54503 C 389.41404,248.6388 390.6406,250.18177 391.46875,252.17393 C 392.29685,254.16614 392.71091,256.34973 392.71094,258.72471 C 392.71091,261.2716 392.25388,263.56457 391.33984,265.60362 C 390.42576,267.64269 389.09764,269.20519 387.35547,270.29112 C 385.61326,271.37706 383.78123,271.92003 381.85937,271.92003 C 380.45311,271.92003 379.19139,271.62315 378.07422,271.0294 C 376.95702,270.43565 376.03905,269.68565 375.32031,268.7794 L 375.32031,280.89659 z M 374.92187,259.05284 C 374.92187,262.25597 375.5703,264.62316 376.86719,266.1544 C 378.16405,267.68566 379.73436,268.45128 381.57812,268.45128 C 383.45311,268.45128 385.05858,267.65831 386.39453,266.07237 C 387.73045,264.48644 388.39842,262.02941 388.39844,258.70128 C 388.39842,255.52942 387.74607,253.15442 386.44141,251.57628 C 385.1367,249.99817 383.57811,249.20911 381.76562,249.20909 C 379.96874,249.20911 378.3789,250.04895 376.99609,251.72862 C 375.61327,253.40833 374.92187,255.84973 374.92187,259.05284 z" style="font-size:48px;-inkscape-font-specification:Sans" id="path3915" inkscape:connector-curvature="0" />
      <path d="M 414.13281,271.35753 L 414.13281,267.70128 C 412.19529,270.51378 409.56249,271.92003 406.23437,271.92003 C 404.76561,271.92003 403.39452,271.63878 402.12109,271.07628 C 400.84765,270.51378 399.90234,269.80675 399.28516,268.95518 C 398.66796,268.10362 398.23437,267.06066 397.98437,265.82628 C 397.8125,264.99816 397.72656,263.68566 397.72656,261.88878 L 397.72656,246.4669 L 401.94531,246.4669 L 401.94531,260.27159 C 401.94531,262.47472 402.03121,263.9591 402.20312,264.72471 C 402.46874,265.83409 403.03124,266.70519 403.89062,267.338 C 404.74999,267.97081 405.81249,268.28722 407.07812,268.28721 C 408.34374,268.28722 409.53124,267.963 410.64062,267.31456 C 411.74998,266.66613 412.53514,265.78331 412.99609,264.66612 C 413.45701,263.54894 413.68748,261.92785 413.6875,259.80284 L 413.6875,246.4669 L 417.90625,246.4669 L 417.90625,271.35753 z" style="font-size:48px;-inkscape-font-specification:Sans" id="path3917" inkscape:connector-curvature="0" />
      <path d="M 433.75,267.58409 L 434.35937,271.31065 C 433.17186,271.56065 432.10936,271.68565 431.17187,271.68565 C 429.64062,271.68565 428.45312,271.44346 427.60937,270.95909 C 426.76562,270.47472 426.17187,269.838 425.82812,269.04893 C 425.48437,268.25987 425.3125,266.59972 425.3125,264.06846 L 425.3125,249.74815 L 422.21875,249.74815 L 422.21875,246.4669 L 425.3125,246.4669 L 425.3125,240.30284 L 429.50781,237.77159 L 429.50781,246.4669 L 433.75,246.4669 L 433.75,249.74815 L 429.50781,249.74815 L 429.50781,264.30284 C 429.5078,265.50597 429.58201,266.27941 429.73047,266.62315 C 429.8789,266.96691 430.12109,267.24034 430.45703,267.44346 C 430.79296,267.64659 431.27343,267.74816 431.89844,267.74815 C 432.36718,267.74816 432.98436,267.69345 433.75,267.58409 z" style="font-size:48px;-inkscape-font-specification:Sans" id="path3919" inkscape:connector-curvature="0" />
    </g>
    <rect style="fill:#ffff00;fill-opacity:0.78431373;fill-rule:evenodd;stroke:none;display:inline" id="box1" width="14.65369" height="72.410004" x="324.05182" y="35.93924" transform="matrix(0.96679569,0.25555056,-0.25555056,0.96679569,0,0)" />
    <rect style="fill:#ffff00;fill-opacity:0.78431373;fill-rule:evenodd;stroke:none" id="box2" width="14.666886" height="82.128731" x="303.01511" y="52.904919" />
    <polyline id="plane1" points="0,0 50,0 0,-10 -50,0 0,0 0,20" transform="matrix(1.1387475e-7,3.6459197,-2.1595816,-2.2936968e-8,721.07453,224.97964)" style="fill:none;stroke:#ff0000;stroke-width:0.70562965;stroke-miterlimit:4;stroke-opacity:1;stroke-dasharray:none;marker-end:url(#Arrow1Mend);display:inline" />
    <polyline id="plane2" points="0,0 50,0 0,-10 -50,0 0,0 0,20" transform="matrix(-6.6557684,8.5226001e-8,0,-2.2500002,450.03483,373.72654)" style="fill:#00ff00;fill-opacity:1;stroke:#000000;stroke-width:0.51165216999999996;stroke-miterlimit:4;stroke-opacity:1;stroke-dasharray:none;marker-end:url(#Arrow1Mend)" />
    <circle id="hinge1" r="10" cx="0" cy="0" sodipodi:cx="0" sodipodi:cy="0" sodipodi:rx="10" sodipodi:ry="10" style="fill:none;stroke:#000000;stroke-width:1.39040339;stroke-miterlimit:4;stroke-opacity:1;stroke-dasharray:none;marker-mid:url(#DiamondS);display:inline" transform="matrix(0.70710678,0.70710679,-0.70710679,0.70710678,310.45604,124.68452)" />
    <circle id="hinge2" r="10" cx="0" cy="0" sodipodi:cx="0" sodipodi:cy="0" sodipodi:rx="10" sodipodi:ry="10" style="fill:none;stroke:#000000;stroke-width:1.39040339;stroke-miterlimit:4;stroke-opacity:1;stroke-dasharray:none;marker-mid:url(#DiamondS);display:inline" transform="matrix(0.70710678,0.70710679,-0.70710679,0.70710678,294.81137,181.92011)" />
    <path transform="matrix(0.2,0,0,0.2,170.96858,17.589287)" d="M 720,202.5 A 22.5,22.5 0 1 1 675,202.5 A 22.5,22.5 0 1 1 720,202.5 z" sodipodi:ry="22.5" sodipodi:rx="22.5" sodipodi:cy="202.5" sodipodi:cx="697.5" id="tracer2" style="fill:#ff0000;fill-opacity:1;fill-rule:evenodd;stroke:none;stroke-width:9;marker-mid:none;display:inline;filter:url(#Tracer)" sodipodi:type="arc" />
    <line id="laser2" x1="617.97443" y1="162.55823" x2="588.66418" y2="162.13855" style="fill:none;stroke:#c8c8c8;stroke-width:1.35000002;stroke-miterlimit:4;stroke-opacity:1;stroke-dasharray:none;marker-end:url(#Arrow1Mend)" />
    <path sodipodi:type="arc" style="opacity:0.5;fill:#ffd42a;fill-opacity:0.90196078;fill-rule:nonzero;stroke:#ff0000;stroke-width:1.72760451;stroke-linejoin:round;stroke-miterlimit:4;stroke-opacity:1;stroke-dasharray:none;stroke-dashoffset:0" id="circle1" sodipodi:cx="693" sodipodi:cy="144" sodipodi:rx="45" sodipodi:ry="45" d="M 738,144 A 45,45 0 1 1 648,144 A 45,45 0 1 1 738,144 z" transform="matrix(0.61993022,0,0,0.985,75.285216,44.074287)" />
    <line id="spring2" x2="514.41791" x1="514.41791" y1="163.39178" y2="136.39178" style="fill:none;stroke:#000000;stroke-width:2.70000005;stroke-miterlimit:4;stroke-opacity:0.78431373;stroke-dasharray:none;display:inline" />
    <rect style="fill:#0000ff;fill-rule:evenodd;stroke:#000000;stroke-width:1px;stroke-linecap:butt;stroke-linejoin:miter;stroke-opacity:1" id="box3" width="90.882439" height="41.068203" x="471.17123" y="321.18576" />
    <path sodipodi:type="arc" style="fill:#00ffff;fill-opacity:1;fill-rule:evenodd;stroke:none" id="circle2" sodipodi:cx="739.6084" sodipodi:cy="397.90421" sodipodi:rx="15.590716" sodipodi:ry="15.590716" d="M 755.19911,397.90421 A 15.590716,15.590716 0 1 1 724.01768,397.90421 A 15.590716,15.590716 0 1 1 755.19911,397.90421 z" transform="translate(-196.05252,-41.409277)" />
    <path sodipodi:type="arc" style="fill:#00ffff;fill-opacity:1;fill-rule:evenodd;stroke:none" id="circle3" sodipodi:cx="664.6969" sodipodi:cy="392.96078" sodipodi:rx="19.773592" sodipodi:ry="19.773592" d="M 684.47049,392.96078 A 19.773592,19.773592 0 1 1 644.92331,392.96078 A 19.773592,19.773592 0 1 1 684.47049,392.96078 z" transform="translate(-171.47049,-41.734377)" />
    <circle id="hinge5" r="10" cx="0" cy="0" sodipodi:cx="0" sodipodi:cy="0" sodipodi:rx="10" sodipodi:ry="10" style="fill:none;stroke:#ff0000;stroke-width:1.39040339;stroke-miterlimit:4;stroke-opacity:1;stroke-dasharray:none;marker-mid:url(#DiamondS);display:inline" transform="matrix(0.70710678,0.70710679,-0.70710679,0.70710678,543.55588,356.49493)" />
    <circle id="hinge6" r="10" cx="0" cy="0" sodipodi:cx="0" sodipodi:cy="0" sodipodi:rx="10" sodipodi:ry="10" style="fill:none;stroke:#ff2a2a;stroke-width:2.70000005;stroke-miterlimit:4;stroke-opacity:1;stroke-dasharray:none;marker-start:url(#Arrow1Sstart-1);marker-mid:none;display:inline" transform="matrix(0.96592583,-0.25881905,-0.25881905,-0.96592583,493.22641,351.22641)" />
    <path transform="matrix(0.13849027,0,0,0.13849027,382.03955,330.37767)" d="M 720,202.5 A 22.5,22.5 0 1 1 675,202.5 A 22.5,22.5 0 1 1 720,202.5 z" sodipodi:ry="22.5" sodipodi:rx="22.5" sodipodi:cy="202.5" sodipodi:cx="697.5" id="tracer3" style="fill:#ffff00;fill-opacity:1;fill-rule:evenodd;stroke:none;stroke-width:9;marker-mid:none;display:inline;filter:url(#Tracer-1)" sodipodi:type="arc" />
    <path transform="matrix(0.13849027,0,0,0.13849027,435.97147,333.6391)" d="M 720,202.5 A 22.5,22.5 0 1 1 675,202.5 A 22.5,22.5 0 1 1 720,202.5 z" sodipodi:ry="22.5" sodipodi:rx="22.5" sodipodi:cy="202.5" sodipodi:cx="697.5" id="tracer4" style="fill:#ffff00;fill-opacity:1;fill-rule:evenodd;stroke:none;stroke-width:9;marker-mid:none;display:inline;filter:url(#Tracer-1-3)" sodipodi:type="arc" />
    <line id="laser2-4" x1="405" y1="166.31018" x2="405" y2="137" style="fill:#000000;fill-opacity:1;stroke:#0000ff;stroke-width:4.5;stroke-miterlimit:4;stroke-opacity:1;stroke-dasharray:none;marker-start:url(#Arrow2Send);display:inline" />
  </g>
</svg>
